<svg version="1.1" id="Layer_1" xmlns="http://www.w3.org/2000/svg" xmlns:xlink="http://www.w3.org/1999/xlink" x="0px" y="0px"
	 width="100px" viewBox="0 0 500 270" enable-background="new 0 0 500 270" xml:space="preserve">
<path fill="#FEFEFE" opacity="1.000000" stroke="none" 
	d="
M308.000000,271.000000 
	C297.312439,271.000000 286.624878,271.000000 275.632202,270.643433 
	C287.761688,268.674713 294.198456,259.574097 291.924866,246.820297 
	C289.928009,235.618622 279.135559,230.996887 262.297638,234.423889 
	C262.297638,241.104095 262.208160,247.889114 262.325867,254.670547 
	C262.420349,260.115936 262.765900,265.557007 263.000000,271.000000 
	C260.299988,271.000000 257.599976,271.000000 254.557831,270.661682 
	C255.026215,269.120880 255.836746,267.918335 257.352081,265.670166 
	C250.628998,265.670166 245.725189,265.670166 240.887726,265.670166 
	C240.887726,261.340485 240.887726,257.398071 240.887726,253.005341 
	C245.478958,253.005341 249.894623,253.005341 254.577972,253.005341 
	C254.577972,251.607040 254.674576,249.849182 254.564056,249.836060 
	C250.065643,249.302017 245.548538,248.925201 241.128281,248.536697 
	C241.128281,244.778152 241.128281,241.102600 241.128281,237.290848 
	C245.548752,237.290848 249.537811,237.391937 253.512863,237.201126 
	C254.261383,237.165176 254.954071,235.965805 255.672516,235.303284 
	C254.977798,234.606125 254.299774,233.324570 253.585693,233.304153 
	C247.821838,233.139374 242.051178,233.211792 236.000000,233.211792 
	C236.000000,246.162064 236.000000,258.581024 236.000000,271.000000 
	C230.311966,271.000000 224.623917,271.000000 218.565247,270.670074 
	C218.449234,269.411133 219.206985,268.214142 218.877808,267.596100 
	C216.538177,263.203369 214.113983,258.840881 211.431976,254.651047 
	C209.895187,252.250320 209.777786,250.363297 211.360168,247.888092 
	C214.259674,243.352615 216.776016,238.572189 219.591156,233.650894 
	C210.510056,232.711975 210.510345,232.712112 207.192245,240.190414 
	C206.450714,241.861649 205.706360,243.531631 204.738144,245.708405 
	C201.017136,239.365387 200.706161,230.032013 189.648392,233.898300 
	C192.282440,238.620865 194.779251,243.420898 197.599915,248.022415 
	C199.080566,250.437866 199.203262,252.329880 197.645554,254.800049 
	C194.657288,259.538788 192.037506,264.509888 189.193176,269.510590 
	C197.971924,270.757538 197.965485,270.754578 201.318253,263.450623 
	C202.201309,261.526917 203.137711,259.627655 204.392120,256.999634 
	C206.811554,262.125763 208.905777,266.562897 211.000000,271.000000 
	C184.979111,271.000000 158.958206,271.000000 132.596817,270.638367 
	C132.858032,268.047455 133.459747,265.818207 134.225250,262.982147 
	C128.285568,262.982147 123.686325,262.982147 118.970093,262.982147 
	C118.970093,260.070404 118.970093,257.510376 118.970093,254.376740 
	C123.436882,254.376740 127.632133,254.376740 131.710846,254.376740 
	C131.710846,251.899948 131.710846,250.007721 131.710846,247.786453 
	C127.282303,247.786453 123.179626,247.786453 119.075104,247.786453 
	C119.075104,245.077301 119.075104,242.716843 119.075104,239.910522 
	C123.853790,239.910522 128.251740,239.910522 132.588623,239.910522 
	C132.588623,237.523758 132.588623,235.604523 132.588623,233.494003 
	C125.111679,233.494003 117.905388,233.494003 110.000000,233.494003 
	C110.000000,246.179794 110.000000,258.589905 110.000000,271.000000 
	C103.312355,271.000000 96.624710,271.000000 89.605499,270.644196 
	C99.787254,268.360596 105.568817,259.478943 103.828110,247.930237 
	C102.247185,237.441711 94.388817,231.535721 83.944244,232.986465 
	C74.503319,234.297806 68.181145,243.656799 69.243629,254.121765 
	C70.091888,262.476715 74.972214,267.473969 82.000000,271.000000 
	C55.010082,271.000000 28.020161,271.000000 1.015121,271.000000 
	C1.015121,181.043686 1.015121,91.087372 1.015121,1.065525 
	C167.560745,1.065525 334.121521,1.065525 500.841125,1.065525 
	C500.841125,90.999794 500.841125,180.999863 500.841125,271.000000 
	C484.591583,271.000000 468.264465,271.000000 451.610962,270.662750 
	C461.704895,267.468567 466.730530,258.306396 464.332031,246.538925 
	C462.582733,237.956512 457.133057,233.031418 449.116119,232.787735 
	C440.863464,232.536865 434.698914,237.254181 432.405701,245.575150 
	C429.444519,256.319611 432.840637,263.766846 444.000000,271.000000 
	C414.312439,271.000000 384.624878,271.000000 354.607880,270.640930 
	C359.279541,269.304169 359.279541,269.304169 357.851135,265.523712 
	C350.974396,267.314056 344.024048,267.969513 339.398560,261.224609 
	C335.402374,255.397385 335.519806,248.751648 339.113953,242.796005 
	C343.619720,235.329819 350.976685,236.260086 358.782745,237.212830 
	C358.348358,235.559433 357.660980,233.776581 356.517883,233.408295 
	C346.921051,230.316254 336.398102,235.297928 333.048187,244.283371 
	C329.084595,254.915039 333.274719,265.483215 343.092224,269.698425 
	C343.786438,269.996490 344.366730,270.559967 345.000000,271.000000 
	C334.979095,271.000000 324.958221,271.000000 314.642944,270.681183 
	C321.511993,268.595795 324.849518,264.671387 325.122284,256.876038 
	C325.378113,249.565659 325.200745,242.239868 325.186676,234.920929 
	C325.185791,234.461731 324.947540,234.002991 324.720459,233.187729 
	C323.348846,233.338913 322.005798,233.486938 320.525726,233.650055 
	C320.525726,236.617111 320.572968,239.102829 320.516327,241.586166 
	C320.379944,247.564285 320.482758,253.567810 319.935791,259.510162 
	C319.519287,264.034943 316.488678,266.704102 311.870667,266.800476 
	C307.424866,266.893311 304.725006,264.332825 303.861023,260.072479 
	C303.370575,257.653961 303.186432,255.142532 303.149994,252.668747 
	C303.055145,246.234451 303.118103,239.797836 303.118103,233.571671 
	C299.603851,232.700394 298.147156,233.382492 298.284241,236.776001 
	C298.512421,242.422729 298.459564,248.088348 298.316040,253.740707 
	C298.119751,261.469604 300.321838,267.742188 308.000000,271.000000 
M274.934296,90.895447 
	C275.407410,97.997849 275.880493,105.100243 276.353577,112.202644 
	C276.823059,112.167366 277.292511,112.132095 277.761993,112.096817 
	C278.179504,105.399864 278.597015,98.702904 279.356628,91.550308 
	C281.267822,87.427498 283.178986,83.304680 285.654053,78.788025 
	C288.822510,75.888618 291.990936,72.989212 295.833496,69.934067 
	C300.898010,66.961304 305.962555,63.988533 311.657684,60.787357 
	C314.218933,58.512363 316.780151,56.237370 319.955353,53.589218 
	C322.380463,50.272610 324.805573,46.956001 327.800354,43.178352 
	C329.193604,40.115536 330.586823,37.052719 332.430878,33.406197 
	C336.886414,19.687826 335.071381,5.866041 328.507751,3.362366 
	C329.864288,12.261416 326.375702,20.107487 322.666412,28.528475 
	C321.006195,31.316639 319.345978,34.104801 317.136536,37.238201 
	C315.086914,39.823700 313.037262,42.409199 310.368469,45.269215 
	C308.556244,47.050022 306.743988,48.830830 304.370392,50.785549 
	C301.056763,53.127647 297.743134,55.469742 293.798981,57.967327 
	C290.977051,60.562733 288.155090,63.158142 284.813904,66.079163 
	C282.613068,69.713615 280.412231,73.348068 277.795532,77.620125 
	C276.904999,81.737946 276.014496,85.855759 274.934296,90.895447 
M344.500214,70.496834 
	C345.956055,65.608414 347.411896,60.719994 348.867737,55.831573 
	C348.331055,55.638222 347.794403,55.444874 347.257721,55.251526 
	C344.194977,59.841473 341.132233,64.431419 337.494232,69.356796 
	C334.563263,72.194862 331.632294,75.032936 328.037445,78.054016 
	C324.028748,80.046448 320.020050,82.038879 315.261230,84.056084 
	C311.486633,85.672371 307.712036,87.288651 303.228973,88.980835 
	C292.566315,94.110916 287.887726,101.368233 288.390198,110.204697 
	C292.438507,106.140259 297.242523,101.317108 302.777466,96.220161 
	C308.187988,94.431274 313.598511,92.642395 319.762177,90.861992 
	C324.583527,88.457802 329.404877,86.053619 334.860077,83.298088 
	C337.910187,79.200073 340.960297,75.102051 344.500214,70.496834 
M333.308319,48.151340 
	C330.072937,52.056664 326.837585,55.961990 322.985901,60.082241 
	C319.949066,62.304905 316.912262,64.527573 313.217529,66.948402 
	C311.496490,67.999939 309.775421,69.051476 307.350891,70.145409 
	C304.594147,71.690414 301.481598,72.829124 299.155762,74.866150 
	C294.507965,78.936813 290.291382,83.499832 285.356445,88.345734 
	C282.628418,94.487015 280.918060,100.756851 282.559143,107.822227 
	C285.264587,102.194130 287.768402,96.985420 290.772705,91.249451 
	C296.194733,87.688591 301.616760,84.127731 307.811310,80.366966 
	C311.577209,78.720634 315.343140,77.074310 319.792999,75.208412 
	C323.961334,71.518036 328.129700,67.827652 332.969238,64.063972 
	C335.290771,59.703217 337.612305,55.342461 340.246155,50.455269 
	C340.524017,49.084660 340.804962,47.714664 341.079193,46.343327 
	C342.067657,41.399918 342.856750,36.467808 340.669678,31.213949 
	C338.226440,37.131149 336.037201,42.433243 333.308319,48.151340 
M199.224304,96.641373 
	C203.509995,100.324371 207.795685,104.007370 212.010681,107.629608 
	C212.469498,101.359756 209.472168,96.352539 203.361816,92.108452 
	C197.059753,89.317635 190.757675,86.526825 183.834686,83.278160 
	C178.895203,80.506546 173.955734,77.734932 168.683136,74.375320 
	C163.314514,67.643509 157.945877,60.911690 151.840454,53.256012 
	C154.382690,64.031975 156.224228,73.775902 164.333191,81.498802 
	C169.856888,84.496033 175.380600,87.493263 181.517349,90.844429 
	C187.280228,92.598915 193.043121,94.353394 199.224304,96.641373 
M213.978134,85.063705 
	C209.194199,81.292488 204.410248,77.521271 199.118896,73.189262 
	C194.755630,70.773262 190.392380,68.357262 185.610764,65.394798 
	C182.022659,62.607334 178.434555,59.819866 174.546280,56.447723 
	C167.072296,48.722130 163.035782,39.227562 160.565384,28.493689 
	C157.295792,40.043358 160.419235,54.702763 167.995834,64.115883 
	C171.518890,67.146431 175.041962,70.176971 179.010834,73.767944 
	C183.888687,75.922081 188.766525,78.076225 194.157059,80.720764 
	C199.363480,83.980057 204.569885,87.239349 210.035995,91.089966 
	C213.015869,96.748703 215.995743,102.407433 218.845444,107.818977 
	C219.315704,100.418976 219.491913,92.557495 213.978134,85.063705 
M263.189575,118.200401 
	C261.881134,115.641060 260.572693,113.081718 259.197845,109.828827 
	C258.261536,107.501129 257.325226,105.173431 256.211243,102.043701 
	C255.696884,99.897072 255.182526,97.750450 254.625381,95.425224 
	C257.085846,95.125992 258.915710,94.903442 261.673126,94.568092 
	C259.556396,92.979118 258.248444,91.997269 256.660828,90.402573 
	C254.502090,87.468857 252.511658,84.389595 250.136581,81.642967 
	C247.828537,78.973885 244.978195,77.325523 241.514877,79.814026 
	C236.482895,74.557228 235.336197,74.143997 230.220718,75.995819 
	C238.850922,82.236862 242.666290,90.621399 241.988174,101.864456 
	C241.839203,103.907837 241.690247,105.951210 241.175797,108.554466 
	C238.804199,113.409615 236.432617,118.264771 233.809341,123.635162 
	C235.466476,124.680084 237.669373,126.069153 240.268646,127.946358 
	C242.487381,129.367325 244.706100,130.788284 247.368790,132.788803 
	C249.293945,132.924728 251.653473,133.840530 253.064987,133.054321 
	C257.812500,130.409927 262.222473,127.159508 267.005310,123.978882 
	C265.653595,122.094894 264.512390,120.504326 263.189575,118.200401 
M178.941193,123.769318 
	C179.982513,125.844734 181.023819,127.920158 182.116043,130.713547 
	C183.617081,133.771408 185.118118,136.829254 186.675308,140.447098 
	C187.119034,141.297028 187.562744,142.146942 188.048416,143.686340 
	C188.938904,145.509918 189.829391,147.333481 190.900208,149.822693 
	C191.551208,151.242584 192.202209,152.662491 192.996338,154.638031 
	C193.307693,155.103043 193.619049,155.568069 194.006760,156.730026 
	C194.961487,158.583908 195.916214,160.437805 197.050110,162.964645 
	C198.283661,165.690994 199.517212,168.417343 200.925995,171.792374 
	C201.366287,172.565079 201.806564,173.337769 202.299911,174.779877 
	C205.178162,177.227432 208.056427,179.674988 211.245621,182.721390 
	C213.608109,183.897644 215.970596,185.073883 218.764313,186.837906 
	C221.803284,188.635834 224.842270,190.433777 228.251526,192.740219 
	C229.718384,193.533508 231.185257,194.326782 233.067245,195.685837 
	C237.885712,198.655746 242.637024,201.745209 247.568146,204.514511 
	C248.858826,205.239349 250.708115,204.969513 252.953598,205.028580 
	C254.402237,203.727707 255.850861,202.426834 258.023560,201.091675 
	C262.060089,198.821808 266.096619,196.551941 270.820343,194.107376 
	C275.211060,191.355179 279.601807,188.602997 284.656372,185.703262 
	C294.640594,181.239426 301.609833,174.164200 304.641785,162.723419 
	C305.567932,160.258728 306.340515,157.722900 307.444305,155.340515 
	C317.062897,134.579697 326.754578,113.852760 336.373993,93.092316 
	C337.116547,91.489777 337.474335,89.708954 338.394165,88.043877 
	C338.394318,87.836716 338.394501,87.629562 338.394684,87.422409 
	C338.261505,87.613022 338.128326,87.803642 337.272949,87.946709 
	C331.753387,91.240410 326.233795,94.534103 320.042786,97.981125 
	C315.651062,100.629486 311.259338,103.277847 306.162445,105.955513 
	C301.678925,108.711044 297.195435,111.466576 292.083435,114.422012 
	C291.395691,114.958900 290.707947,115.495789 289.301361,116.011665 
	C283.876251,119.253403 278.451141,122.495140 272.298004,125.871239 
	C265.203278,129.990692 258.108551,134.110153 250.341141,138.062653 
	C248.890198,137.383163 247.439240,136.703674 245.573990,135.506088 
	C243.215668,134.281494 240.857330,133.056885 238.066376,131.308121 
	C236.534775,130.482056 235.003174,129.656006 232.966064,128.323120 
	C231.634094,127.565186 230.302139,126.807251 228.532623,125.544128 
	C226.738861,124.579109 224.945114,123.614090 222.758987,122.183075 
	C221.856674,121.754189 220.954346,121.325310 219.653412,120.390091 
	C218.002213,119.500519 216.350998,118.610947 214.213684,117.211456 
	C212.030869,116.054924 209.848068,114.898392 207.229660,113.176315 
	C204.810028,111.811241 202.390396,110.446167 199.547043,108.609840 
	C198.424210,108.050804 197.301361,107.491768 195.753265,106.379150 
	C185.053528,100.112526 174.353790,93.845894 163.654053,87.579269 
	C163.373077,87.971146 163.092117,88.363022 162.811157,88.754898 
	C167.559402,98.827522 172.307648,108.900146 177.082535,119.633308 
	C177.629837,120.788597 178.177139,121.943886 178.941193,123.769318 
M171.093964,38.692024 
	C174.332077,43.322868 177.570206,47.953712 181.023941,53.181488 
	C186.546692,57.192871 192.069443,61.204258 198.065079,65.739143 
	C204.360260,70.531067 210.655441,75.322998 217.118805,80.796371 
	C223.908218,90.893829 223.746216,102.228333 223.011215,113.737320 
	C226.968979,101.453568 228.798859,89.229454 222.983917,76.272095 
	C219.208115,68.189522 213.709290,61.634357 205.543594,56.548946 
	C200.090179,52.255817 194.636749,47.962688 188.908936,43.072731 
	C185.896667,39.045822 182.884384,35.018917 179.737381,30.294325 
	C175.043701,21.977926 172.212921,13.066892 171.643921,2.182176 
	C164.332413,15.008935 165.242950,26.484018 171.093964,38.692024 
M146.340790,259.466187 
	C146.340790,255.222458 146.340790,250.978729 146.340790,246.734985 
	C150.586319,252.458878 154.077454,257.966461 156.450912,263.919617 
	C158.786011,269.776520 162.515915,271.147339 168.255478,269.648712 
	C168.255478,257.664581 168.255478,245.590927 168.255478,233.550766 
	C165.685837,233.550766 163.448608,233.550766 160.844452,233.550766 
	C160.844452,241.063873 160.844452,248.263885 160.844452,256.665741 
	C157.506592,250.347763 154.785751,245.117325 151.990875,239.926773 
	C148.014481,232.541977 147.991257,232.554474 139.136414,233.697845 
	C139.136414,245.717789 139.136414,257.764008 139.136414,269.712067 
	C141.663574,269.712067 143.884827,269.712067 146.340683,269.712067 
	C146.340683,266.411957 146.340683,263.426544 146.340790,259.466187 
M47.443710,247.741257 
	C46.022682,247.741257 44.601654,247.741257 42.652870,247.741257 
	C42.652870,242.620789 42.652870,238.048370 42.652870,233.511566 
	C39.696632,233.511566 37.284283,233.511566 34.836060,233.511566 
	C34.836060,245.813293 34.836060,257.827545 34.836060,269.740173 
	C37.657467,269.740173 40.078751,269.740173 42.940491,269.740173 
	C42.940491,264.722717 42.940491,259.980103 42.940491,255.187195 
	C47.471985,255.187195 51.541695,255.187195 56.025085,255.187195 
	C56.025085,260.171814 56.025085,264.922607 56.025085,269.674438 
	C58.992596,269.674438 61.522060,269.674438 63.860863,269.674438 
	C63.860863,257.399414 63.860863,245.483719 63.860863,233.508698 
	C61.150055,233.508698 58.748474,233.508698 55.973644,233.508698 
	C55.973644,236.086273 55.973644,238.384766 55.973644,240.683243 
	C55.973644,242.957565 55.973644,245.231903 55.973644,247.741943 
	C53.107994,247.741943 50.786259,247.741943 47.443710,247.741257 
M11.084159,260.618652 
	C10.920245,258.611572 11.042293,256.963409 13.846671,257.242889 
	C15.313306,257.389038 16.848843,257.179199 18.316574,256.921295 
	C24.815290,255.779419 28.867661,251.144989 28.887789,244.942581 
	C28.907223,238.954010 25.112137,234.581009 18.309273,233.851166 
	C13.316591,233.315521 8.220246,233.746140 3.230422,233.746140 
	C3.230422,246.340332 3.230422,258.076202 3.230422,269.752625 
	C5.961962,269.752625 8.374517,269.752625 11.083211,269.752625 
	C11.083211,266.854675 11.083211,264.218903 11.084159,260.618652 
M475.075348,264.369507 
	C475.075348,256.699890 475.075348,249.030289 475.075348,240.564651 
	C480.952606,249.854614 486.217285,258.447113 491.820007,266.813202 
	C492.998535,268.572998 495.418610,269.501312 497.266571,270.812775 
	C497.671021,270.432495 498.075439,270.052216 498.479889,269.671936 
	C498.479889,258.398773 498.567505,247.123779 498.334595,235.855438 
	C498.313019,234.811386 496.254761,233.809433 495.142181,232.787933 
	C494.716064,233.181213 494.289948,233.574493 493.863831,233.967773 
	C493.863831,242.830078 493.863831,251.692383 493.863831,261.566925 
	C488.154175,252.612854 482.925354,244.620865 477.939301,236.480194 
	C476.206146,233.650497 474.265198,232.397522 470.890686,233.706177 
	C470.890686,245.617081 470.890686,257.559021 470.890686,269.786530 
	C472.185669,269.847473 473.417664,269.905426 475.075348,269.983398 
	C475.075348,268.268311 475.075348,266.799286 475.075348,264.369507 
M382.869202,241.558945 
	C382.436035,240.304245 382.044647,239.033157 381.560516,237.798431 
	C380.700928,235.606171 380.509216,232.206879 377.002106,233.382111 
	C375.312622,233.948212 373.559235,235.988205 372.921478,237.753418 
	C369.258240,247.892487 365.917816,258.148285 362.483582,268.369751 
	C362.348145,268.772858 362.371887,269.229462 362.300751,269.838379 
	C363.922516,269.838379 365.365570,269.838379 366.851257,269.838379 
	C367.863342,266.848999 368.701355,263.974701 369.836975,261.223206 
	C370.268707,260.177124 371.239746,258.864655 372.211700,258.608002 
	C379.803375,256.603607 383.542725,258.598083 385.987213,266.137909 
	C387.022125,269.329926 388.357666,271.102722 392.264587,269.481171 
	C389.202179,260.444763 386.131561,251.384186 382.869202,241.558945 
M400.798126,266.083069 
	C400.869263,267.336395 400.940430,268.589722 401.023315,270.049530 
	C402.722656,269.975281 404.004578,269.919281 405.876221,269.837494 
	C405.876221,258.925079 405.876221,248.199219 405.876221,237.156555 
	C409.761780,237.156555 413.050171,237.156555 416.240601,237.156555 
	C417.471466,233.715103 415.945831,233.112137 413.195892,233.153427 
	C406.031921,233.261002 398.865265,233.186325 391.699677,233.198410 
	C391.232574,233.199203 390.765656,233.319122 390.097778,233.411377 
	C390.097778,234.697144 390.097778,235.895325 390.097778,237.647583 
	C393.811310,237.647583 397.201904,237.647583 400.798584,237.647583 
	C400.798584,247.191010 400.798584,256.180237 400.798126,266.083069 
M184.236374,252.499634 
	C184.236374,246.220367 184.236374,239.941101 184.236374,233.501709 
	C181.303757,233.501709 178.902710,233.501709 176.392197,233.501709 
	C176.392197,245.796646 176.392197,257.834351 176.392197,269.722168 
	C179.169998,269.722168 181.592804,269.722168 184.236389,269.722168 
	C184.236389,264.118713 184.236389,258.808899 184.236374,252.499634 
M422.584076,233.214615 
	C422.053284,234.236343 421.069397,235.254532 421.061401,236.280334 
	C420.975830,247.214539 421.040924,258.149994 421.095459,269.084930 
	C421.096771,269.351501 421.453217,269.616302 421.605652,269.828491 
	C422.921295,269.828491 424.195007,269.828491 425.903564,269.828491 
	C425.903564,258.224518 425.949554,246.828186 425.798920,235.434479 
	C425.789001,234.682571 424.279022,233.950531 422.584076,233.214615 
z"/>
<path fill="#0A096A" opacity="1.000000" stroke="none" 
	d="
M82.437500,271.000000 
	C74.972214,267.473969 70.091888,262.476715 69.243629,254.121765 
	C68.181145,243.656799 74.503319,234.297806 83.944244,232.986465 
	C94.388817,231.535721 102.247185,237.441711 103.828110,247.930237 
	C105.568817,259.478943 99.787254,268.360596 89.136963,270.644196 
	C86.958336,271.000000 84.916664,271.000000 82.437500,271.000000 
M85.810806,239.218002 
	C80.716347,240.263138 78.837051,244.074783 78.210083,248.594116 
	C77.506264,253.667450 77.547989,259.100342 82.130714,262.247162 
	C84.195526,263.665009 88.650017,263.924072 90.679466,262.620911 
	C95.992043,259.209534 95.752556,253.243362 94.881950,247.705795 
	C94.159012,243.107513 91.803810,239.609268 85.810806,239.218002 
z"/>
<path fill="#12116F" opacity="1.000000" stroke="none" 
	d="
M110.468582,271.000000 
	C110.000000,258.589905 110.000000,246.179794 110.000000,233.494003 
	C117.905388,233.494003 125.111679,233.494003 132.588623,233.494003 
	C132.588623,235.604523 132.588623,237.523758 132.588623,239.910522 
	C128.251740,239.910522 123.853790,239.910522 119.075104,239.910522 
	C119.075104,242.716843 119.075104,245.077301 119.075104,247.786453 
	C123.179626,247.786453 127.282303,247.786453 131.710846,247.786453 
	C131.710846,250.007721 131.710846,251.899948 131.710846,254.376740 
	C127.632133,254.376740 123.436882,254.376740 118.970093,254.376740 
	C118.970093,257.510376 118.970093,260.070404 118.970093,262.982147 
	C123.686325,262.982147 128.285568,262.982147 134.225250,262.982147 
	C133.459747,265.818207 132.858032,268.047455 132.128159,270.638367 
	C124.979050,271.000000 117.958107,271.000000 110.468582,271.000000 
z"/>
<path fill="#0C0B6B" opacity="1.000000" stroke="none" 
	d="
M211.437500,271.000000 
	C208.905777,266.562897 206.811554,262.125763 204.392120,256.999634 
	C203.137711,259.627655 202.201309,261.526917 201.318253,263.450623 
	C197.965485,270.754578 197.971924,270.757538 189.193176,269.510590 
	C192.037506,264.509888 194.657288,259.538788 197.645554,254.800049 
	C199.203262,252.329880 199.080566,250.437866 197.599915,248.022415 
	C194.779251,243.420898 192.282440,238.620865 189.648392,233.898300 
	C200.706161,230.032013 201.017136,239.365387 204.738144,245.708405 
	C205.706360,243.531631 206.450714,241.861649 207.192245,240.190414 
	C210.510345,232.712112 210.510056,232.711975 219.591156,233.650894 
	C216.776016,238.572189 214.259674,243.352615 211.360168,247.888092 
	C209.777786,250.363297 209.895187,252.250320 211.431976,254.651047 
	C214.113983,258.840881 216.538177,263.203369 218.877808,267.596100 
	C219.206985,268.214142 218.449234,269.411133 218.097290,270.670074 
	C215.958328,271.000000 213.916672,271.000000 211.437500,271.000000 
z"/>
<path fill="#13126E" opacity="1.000000" stroke="none" 
	d="
M263.460632,271.000000 
	C262.765900,265.557007 262.420349,260.115936 262.325867,254.670547 
	C262.208160,247.889114 262.297638,241.104095 262.297638,234.423889 
	C279.135559,230.996887 289.928009,235.618622 291.924866,246.820297 
	C294.198456,259.574097 287.761688,268.674713 275.163544,270.643433 
	C271.307098,271.000000 267.614166,271.000000 263.460632,271.000000 
M280.194397,265.013275 
	C286.864777,260.357147 289.326263,251.613098 286.006683,244.365952 
	C283.215698,238.272781 275.912598,235.727570 267.457092,237.956863 
	C267.457092,247.455261 267.457092,256.973328 267.457092,267.449432 
	C271.803375,266.688507 275.643097,266.016266 280.194397,265.013275 
z"/>
<path fill="#12116E" opacity="1.000000" stroke="none" 
	d="
M444.437500,271.000000 
	C432.840637,263.766846 429.444519,256.319611 432.405701,245.575150 
	C434.698914,237.254181 440.863464,232.536865 449.116119,232.787735 
	C457.133057,233.031418 462.582733,237.956512 464.332031,246.538925 
	C466.730530,258.306396 461.704895,267.468567 451.142273,270.662750 
	C448.958344,271.000000 446.916656,271.000000 444.437500,271.000000 
M459.451447,247.369965 
	C459.120911,246.261642 458.889038,245.111771 458.442688,244.052231 
	C456.553009,239.566620 453.390015,236.634491 448.303101,236.612061 
	C442.991119,236.588654 439.642120,239.557480 437.922150,244.363693 
	C435.880554,250.068726 435.869690,255.785797 438.950745,261.159241 
	C443.330383,268.797363 453.523956,268.969452 457.325409,261.079254 
	C459.153168,257.285583 458.938782,252.508072 459.451447,247.369965 
z"/>
<path fill="#100F6C" opacity="1.000000" stroke="none" 
	d="
M308.428467,271.000000 
	C300.321838,267.742188 298.119751,261.469604 298.316040,253.740707 
	C298.459564,248.088348 298.512421,242.422729 298.284241,236.776001 
	C298.147156,233.382492 299.603851,232.700394 303.118103,233.571671 
	C303.118103,239.797836 303.055145,246.234451 303.149994,252.668747 
	C303.186432,255.142532 303.370575,257.653961 303.861023,260.072479 
	C304.725006,264.332825 307.424866,266.893311 311.870667,266.800476 
	C316.488678,266.704102 319.519287,264.034943 319.935791,259.510162 
	C320.482758,253.567810 320.379944,247.564285 320.516327,241.586166 
	C320.572968,239.102829 320.525726,236.617111 320.525726,233.650055 
	C322.005798,233.486938 323.348846,233.338913 324.720459,233.187729 
	C324.947540,234.002991 325.185791,234.461731 325.186676,234.920929 
	C325.200745,242.239868 325.378113,249.565659 325.122284,256.876038 
	C324.849518,264.671387 321.511993,268.595795 314.174286,270.681183 
	C312.285645,271.000000 310.571289,271.000000 308.428467,271.000000 
z"/>
<path fill="#13126E" opacity="1.000000" stroke="none" 
	d="
M236.467941,271.000000 
	C236.000000,258.581024 236.000000,246.162064 236.000000,233.211792 
	C242.051178,233.211792 247.821838,233.139374 253.585693,233.304153 
	C254.299774,233.324570 254.977798,234.606125 255.672516,235.303284 
	C254.954071,235.965805 254.261383,237.165176 253.512863,237.201126 
	C249.537811,237.391937 245.548752,237.290848 241.128281,237.290848 
	C241.128281,241.102600 241.128281,244.778152 241.128281,248.536697 
	C245.548538,248.925201 250.065643,249.302017 254.564056,249.836060 
	C254.674576,249.849182 254.577972,251.607040 254.577972,253.005341 
	C249.894623,253.005341 245.478958,253.005341 240.887726,253.005341 
	C240.887726,257.398071 240.887726,261.340485 240.887726,265.670166 
	C245.725189,265.670166 250.628998,265.670166 257.352081,265.670166 
	C255.836746,267.918335 255.026215,269.120880 254.107849,270.661682 
	C248.311966,271.000000 242.623917,271.000000 236.467941,271.000000 
z"/>
<path fill="#12116E" opacity="1.000000" stroke="none" 
	d="
M345.449982,271.000000 
	C344.366730,270.559967 343.786438,269.996490 343.092224,269.698425 
	C333.274719,265.483215 329.084595,254.915039 333.048187,244.283371 
	C336.398102,235.297928 346.921051,230.316254 356.517883,233.408295 
	C357.660980,233.776581 358.348358,235.559433 358.782745,237.212830 
	C350.976685,236.260086 343.619720,235.329819 339.113953,242.796005 
	C335.519806,248.751648 335.402374,255.397385 339.398560,261.224609 
	C344.024048,267.969513 350.974396,267.314056 357.851135,265.523712 
	C359.279541,269.304169 359.279541,269.304169 354.139221,270.640930 
	C351.299988,271.000000 348.599976,271.000000 345.449982,271.000000 
z"/>
<path fill="#F57F2F" opacity="1.000000" stroke="none" 
	d="
M304.122406,163.228851 
	C301.609833,174.164200 294.640594,181.239426 284.325806,185.361359 
	C284.094025,183.536514 283.897430,181.958817 284.337921,180.585510 
	C288.122864,168.786331 292.018372,157.022598 295.890015,145.251266 
	C299.761292,133.480911 303.692505,121.729706 307.442078,109.920769 
	C307.808624,108.766434 307.085144,107.265991 306.867615,105.926208 
	C311.259338,103.277847 315.651062,100.629486 320.702515,98.154518 
	C321.282471,100.566467 321.704681,102.966949 321.043091,105.017845 
	C315.946350,120.818031 310.516602,136.511444 305.494781,152.334686 
	C304.405884,155.765671 304.547546,159.587204 304.122406,163.228851 
z"/>
<path fill="#F4742B" opacity="1.000000" stroke="none" 
	d="
M306.515015,105.940857 
	C307.085144,107.265991 307.808624,108.766434 307.442078,109.920769 
	C303.692505,121.729706 299.761292,133.480911 295.890015,145.251266 
	C292.018372,157.022598 288.122864,168.786331 284.337921,180.585510 
	C283.897430,181.958817 284.094025,183.536514 283.993896,185.435120 
	C279.601807,188.602997 275.211060,191.355179 270.325073,193.836945 
	C269.747101,192.312180 269.277008,190.931137 269.639679,189.822510 
	C275.187836,172.863007 281.076630,156.011185 286.375092,138.975357 
	C288.898865,130.860733 293.669434,123.247543 292.711945,114.222107 
	C297.195435,111.466576 301.678925,108.711044 306.515015,105.940857 
z"/>
<path fill="#F26327" opacity="1.000000" stroke="none" 
	d="
M232.652115,195.120056 
	C231.185257,194.326782 229.718384,193.533508 228.215240,192.163208 
	C233.170959,187.887939 237.849487,183.623337 243.237701,180.640945 
	C249.374725,177.244049 252.273071,172.912308 250.959732,165.523376 
	C250.570145,162.360931 250.174255,159.641571 249.927185,156.676498 
	C250.379532,155.947876 250.683075,155.464966 251.306091,154.859131 
	C253.804031,153.273865 256.090363,151.947617 258.140320,150.323120 
	C263.775360,145.857651 269.311279,141.267075 274.918640,137.158157 
	C274.490479,140.002762 274.290741,142.501129 273.528229,144.813950 
	C267.836365,162.078903 261.989929,179.293015 256.348480,196.574173 
	C255.906769,197.927261 253.473099,200.386276 257.299500,201.125961 
	C255.850861,202.426834 254.402237,203.727707 252.282349,204.820007 
	C251.407364,199.508514 251.270355,194.401443 250.955292,189.305389 
	C250.871246,187.946259 250.242188,186.620850 249.863342,185.279968 
	C248.516525,185.691833 247.010132,185.845398 245.851181,186.561371 
	C241.391174,189.316620 237.042374,192.251892 232.652115,195.120056 
z"/>
<path fill="#F36C29" opacity="1.000000" stroke="none" 
	d="
M257.661530,201.108826 
	C253.473099,200.386276 255.906769,197.927261 256.348480,196.574173 
	C261.989929,179.293015 267.836365,162.078903 273.528229,144.813950 
	C274.290741,142.501129 274.490479,140.002762 274.995087,136.846481 
	C276.453003,134.493057 278.001373,132.981323 279.254791,131.255386 
	C282.906494,126.227066 286.440216,121.113083 290.020203,116.032684 
	C290.707947,115.495789 291.395691,114.958900 292.397705,114.322067 
	C293.669434,123.247543 288.898865,130.860733 286.375092,138.975357 
	C281.076630,156.011185 275.187836,172.863007 269.639679,189.822510 
	C269.277008,190.931137 269.747101,192.312180 269.981476,193.924301 
	C266.096619,196.551941 262.060089,198.821808 257.661530,201.108826 
z"/>
<path fill="#0C0B6B" opacity="1.000000" stroke="none" 
	d="
M146.340729,259.953644 
	C146.340683,263.426544 146.340683,266.411957 146.340683,269.712067 
	C143.884827,269.712067 141.663574,269.712067 139.136414,269.712067 
	C139.136414,257.764008 139.136414,245.717789 139.136414,233.697845 
	C147.991257,232.554474 148.014481,232.541977 151.990875,239.926773 
	C154.785751,245.117325 157.506592,250.347763 160.844452,256.665741 
	C160.844452,248.263885 160.844452,241.063873 160.844452,233.550766 
	C163.448608,233.550766 165.685837,233.550766 168.255478,233.550766 
	C168.255478,245.590927 168.255478,257.664581 168.255478,269.648712 
	C162.515915,271.147339 158.786011,269.776520 156.450912,263.919617 
	C154.077454,257.966461 150.586319,252.458878 146.340790,246.734985 
	C146.340790,250.978729 146.340790,255.222458 146.340729,259.953644 
M146.567001,245.899551 
	C146.640427,245.706421 146.713837,245.513290 146.787262,245.320175 
	C146.602829,245.373672 146.418381,245.427170 146.567001,245.899551 
z"/>
<path fill="#0D0D6C" opacity="1.000000" stroke="none" 
	d="
M47.954117,247.741608 
	C50.786259,247.741943 53.107994,247.741943 55.973644,247.741943 
	C55.973644,245.231903 55.973644,242.957565 55.973644,240.683243 
	C55.973644,238.384766 55.973644,236.086273 55.973644,233.508698 
	C58.748474,233.508698 61.150055,233.508698 63.860863,233.508698 
	C63.860863,245.483719 63.860863,257.399414 63.860863,269.674438 
	C61.522060,269.674438 58.992596,269.674438 56.025085,269.674438 
	C56.025085,264.922607 56.025085,260.171814 56.025085,255.187195 
	C51.541695,255.187195 47.471985,255.187195 42.940491,255.187195 
	C42.940491,259.980103 42.940491,264.722717 42.940491,269.740173 
	C40.078751,269.740173 37.657467,269.740173 34.836060,269.740173 
	C34.836060,257.827545 34.836060,245.813293 34.836060,233.511566 
	C37.284283,233.511566 39.696632,233.511566 42.652870,233.511566 
	C42.652870,238.048370 42.652870,242.620789 42.652870,247.741257 
	C44.601654,247.741257 46.022682,247.741257 47.954117,247.741608 
z"/>
<path fill="#070668" opacity="1.000000" stroke="none" 
	d="
M11.083685,261.100891 
	C11.083211,264.218903 11.083211,266.854675 11.083211,269.752625 
	C8.374517,269.752625 5.961962,269.752625 3.230422,269.752625 
	C3.230422,258.076202 3.230422,246.340332 3.230422,233.746140 
	C8.220246,233.746140 13.316591,233.315521 18.309273,233.851166 
	C25.112137,234.581009 28.907223,238.954010 28.887789,244.942581 
	C28.867661,251.144989 24.815290,255.779419 18.316574,256.921295 
	C16.848843,257.179199 15.313306,257.389038 13.846671,257.242889 
	C11.042293,256.963409 10.920245,258.611572 11.083685,261.100891 
M11.226483,240.334518 
	C11.226483,243.750732 11.226483,247.166946 11.226483,252.220261 
	C14.621011,250.645721 17.640255,249.909409 19.613756,248.058228 
	C20.647921,247.088196 20.652670,243.009247 19.713104,242.353516 
	C17.572695,240.859741 14.562745,240.611938 11.226483,240.334518 
z"/>
<path fill="#0B0B69" opacity="1.000000" stroke="none" 
	d="
M475.075348,264.849884 
	C475.075348,266.799286 475.075348,268.268311 475.075348,269.983398 
	C473.417664,269.905426 472.185669,269.847473 470.890686,269.786530 
	C470.890686,257.559021 470.890686,245.617081 470.890686,233.706177 
	C474.265198,232.397522 476.206146,233.650497 477.939301,236.480194 
	C482.925354,244.620865 488.154175,252.612854 493.863831,261.566925 
	C493.863831,251.692383 493.863831,242.830078 493.863831,233.967773 
	C494.289948,233.574493 494.716064,233.181213 495.142181,232.787933 
	C496.254761,233.809433 498.313019,234.811386 498.334595,235.855438 
	C498.567505,247.123779 498.479889,258.398773 498.479889,269.671936 
	C498.075439,270.052216 497.671021,270.432495 497.266571,270.812775 
	C495.418610,269.501312 492.998535,268.572998 491.820007,266.813202 
	C486.217285,258.447113 480.952606,249.854614 475.075348,240.564651 
	C475.075348,249.030289 475.075348,256.699890 475.075348,264.849884 
z"/>
<path fill="#F68934" opacity="1.000000" stroke="none" 
	d="
M304.382080,162.976135 
	C304.547546,159.587204 304.405884,155.765671 305.494781,152.334686 
	C310.516602,136.511444 315.946350,120.818031 321.043091,105.017845 
	C321.704681,102.966949 321.282471,100.566467 321.038269,98.077858 
	C326.233795,94.534103 331.753387,91.240410 337.636902,87.973831 
	C338.000854,88.000946 338.010925,88.010994 338.010925,88.011002 
	C337.474335,89.708954 337.116547,91.489777 336.373993,93.092316 
	C326.754578,113.852760 317.062897,134.579697 307.444305,155.340515 
	C306.340515,157.722900 305.567932,160.258728 304.382080,162.976135 
z"/>
<path fill="#FCBF68" opacity="1.000000" stroke="none" 
	d="
M238.499023,131.832306 
	C240.857330,133.056885 243.215668,134.281494 245.634949,136.064774 
	C237.446396,142.896637 229.175629,149.142120 220.953949,155.451584 
	C214.189316,160.642883 207.482941,165.910095 200.750763,171.143677 
	C199.517212,168.417343 198.283661,165.690994 197.108490,162.292236 
	C197.715179,161.002548 198.169174,160.251801 198.825745,159.787659 
	C212.036194,150.449448 225.269958,141.144196 238.499023,131.832306 
z"/>
<path fill="#FBBB71" opacity="1.000000" stroke="none" 
	d="
M200.838379,171.468018 
	C207.482941,165.910095 214.189316,160.642883 220.953949,155.451584 
	C229.175629,149.142120 237.446396,142.896637 245.842102,136.323822 
	C247.439240,136.703674 248.890198,137.383163 250.668671,138.564270 
	C250.977295,141.042068 250.958359,143.018250 250.561310,144.996536 
	C248.949020,145.353760 247.499771,145.407639 246.514420,146.111206 
	C237.912918,152.252747 229.325378,158.419235 220.897217,164.794525 
	C218.640289,166.501724 216.944809,168.951172 214.658310,171.223969 
	C210.298981,172.295547 206.272919,173.203018 202.246841,174.110474 
	C201.806564,173.337769 201.366287,172.565079 200.838379,171.468018 
z"/>
<path fill="#100F6C" opacity="1.000000" stroke="none" 
	d="
M382.965088,241.941284 
	C386.131561,251.384186 389.202179,260.444763 392.264587,269.481171 
	C388.357666,271.102722 387.022125,269.329926 385.987213,266.137909 
	C383.542725,258.598083 379.803375,256.603607 372.211700,258.608002 
	C371.239746,258.864655 370.268707,260.177124 369.836975,261.223206 
	C368.701355,263.974701 367.863342,266.848999 366.851257,269.838379 
	C365.365570,269.838379 363.922516,269.838379 362.300751,269.838379 
	C362.371887,269.229462 362.348145,268.772858 362.483582,268.369751 
	C365.917816,258.148285 369.258240,247.892487 372.921478,237.753418 
	C373.559235,235.988205 375.312622,233.948212 377.002106,233.382111 
	C380.509216,232.206879 380.700928,235.606171 381.560516,237.798431 
	C382.044647,239.033157 382.436035,240.304245 382.965088,241.941284 
M380.990021,254.888794 
	C381.250427,254.120972 381.899689,253.235672 381.708893,252.604202 
	C380.348572,248.102402 378.816803,243.652420 377.002625,238.167114 
	C375.067352,244.277130 373.453369,249.372894 371.837646,254.474045 
	C372.507141,254.683502 372.815643,254.860336 373.126495,254.864456 
	C375.453766,254.895447 377.781525,254.892288 380.990021,254.888794 
z"/>
<path fill="#F15E28" opacity="1.000000" stroke="none" 
	d="
M177.055893,118.972778 
	C172.307648,108.900146 167.559402,98.827522 162.811157,88.754898 
	C163.092117,88.363022 163.373077,87.971146 163.654053,87.579269 
	C174.353790,93.845894 185.053528,100.112526 195.608521,106.670792 
	C187.513229,108.184738 182.256744,113.536125 177.055893,118.972778 
z"/>
<path fill="#F68330" opacity="1.000000" stroke="none" 
	d="
M249.778381,156.922226 
	C250.174255,159.641571 250.570145,162.360931 250.591156,165.539261 
	C248.586258,166.712250 246.813461,167.209900 245.349487,168.175674 
	C236.305359,174.141891 227.330780,180.213531 218.333099,186.250153 
	C215.970596,185.073883 213.608109,183.897644 211.240356,182.107483 
	C214.808441,178.873947 218.496368,176.393402 221.910461,173.580490 
	C223.838120,171.992264 225.315216,169.857208 227.307251,167.813309 
	C235.005600,164.079514 242.391998,160.500870 249.778381,156.922226 
z"/>
<path fill="#1A1A72" opacity="1.000000" stroke="none" 
	d="
M400.798340,265.626282 
	C400.798584,256.180237 400.798584,247.191010 400.798584,237.647583 
	C397.201904,237.647583 393.811310,237.647583 390.097778,237.647583 
	C390.097778,235.895325 390.097778,234.697144 390.097778,233.411377 
	C390.765656,233.319122 391.232574,233.199203 391.699677,233.198410 
	C398.865265,233.186325 406.031921,233.261002 413.195892,233.153427 
	C415.945831,233.112137 417.471466,233.715103 416.240601,237.156555 
	C413.050171,237.156555 409.761780,237.156555 405.876221,237.156555 
	C405.876221,248.199219 405.876221,258.925079 405.876221,269.837494 
	C404.004578,269.919281 402.722656,269.975281 401.023315,270.049530 
	C400.940430,268.589722 400.869263,267.336395 400.798340,265.626282 
z"/>
<path fill="#F4722C" opacity="1.000000" stroke="none" 
	d="
M218.548706,186.544037 
	C227.330780,180.213531 236.305359,174.141891 245.349487,168.175674 
	C246.813461,167.209900 248.586258,166.712250 250.584869,165.982361 
	C252.273071,172.912308 249.374725,177.244049 243.237701,180.640945 
	C237.849487,183.623337 233.170959,187.887939 228.030106,191.908966 
	C224.842270,190.433777 221.803284,188.635834 218.548706,186.544037 
z"/>
<path fill="#070668" opacity="1.000000" stroke="none" 
	d="
M184.236389,252.999359 
	C184.236389,258.808899 184.236389,264.118713 184.236389,269.722168 
	C181.592804,269.722168 179.169998,269.722168 176.392197,269.722168 
	C176.392197,257.834351 176.392197,245.796646 176.392197,233.501709 
	C178.902710,233.501709 181.303757,233.501709 184.236374,233.501709 
	C184.236374,239.941101 184.236374,246.220367 184.236389,252.999359 
z"/>
<path fill="#F79A74" opacity="1.000000" stroke="none" 
	d="
M289.660767,116.022171 
	C286.440216,121.113083 282.906494,126.227066 279.254791,131.255386 
	C278.001373,132.981323 276.453003,134.493057 274.962891,136.414307 
	C269.311279,141.267075 263.775360,145.857651 258.140320,150.323120 
	C256.090363,151.947617 253.804031,153.273865 251.307968,154.432281 
	C250.994476,152.418228 250.998535,150.708054 251.349762,148.963516 
	C258.183685,143.044601 264.775635,137.268829 271.067596,131.182922 
	C272.312012,129.979233 272.403076,127.583099 273.026031,125.736877 
	C278.451141,122.495140 283.876251,119.253403 289.660767,116.022171 
z"/>
<path fill="#F58149" opacity="1.000000" stroke="none" 
	d="
M239.872269,127.458221 
	C237.669373,126.069153 235.466476,124.680084 233.809341,123.635162 
	C236.432617,118.264771 238.804199,113.409615 241.791931,108.277634 
	C247.068344,106.282448 251.728622,104.564095 256.388916,102.845734 
	C257.325226,105.173431 258.261536,107.501129 259.043640,110.503571 
	C256.116028,113.195854 253.182571,115.029800 250.607300,117.274658 
	C246.892593,120.512756 243.437912,124.049133 239.872269,127.458221 
z"/>
<path fill="#F57F31" opacity="1.000000" stroke="none" 
	d="
M189.183334,43.669559 
	C194.636749,47.962688 200.090179,52.255817 205.606506,57.107784 
	C202.977005,60.182961 200.284592,62.699299 197.592194,65.215637 
	C192.069443,61.204258 186.546692,57.192871 181.044739,52.522606 
	C183.771469,49.132336 186.477402,46.400948 189.183334,43.669559 
z"/>
<path fill="#FBB75D" opacity="1.000000" stroke="none" 
	d="
M238.282700,131.570221 
	C225.269958,141.144196 212.036194,150.449448 198.825745,159.787659 
	C198.169174,160.251801 197.715179,161.002548 197.018906,161.955765 
	C195.916214,160.437805 194.961487,158.583908 194.291519,156.241943 
	C197.122742,154.239365 199.783676,152.886856 202.195862,151.182327 
	C212.660690,143.787567 223.052933,136.290070 233.471573,128.829926 
	C235.003174,129.656006 236.534775,130.482056 238.282700,131.570221 
z"/>
<path fill="#F78F35" opacity="1.000000" stroke="none" 
	d="
M197.828644,65.477386 
	C200.284592,62.699299 202.977005,60.182961 205.816223,57.369045 
	C213.709290,61.634357 219.208115,68.189522 222.656052,76.640335 
	C220.535675,78.044022 218.743149,79.079475 216.950623,80.114929 
	C210.655441,75.322998 204.360260,70.531067 197.828644,65.477386 
z"/>
<path fill="#F57F2F" opacity="1.000000" stroke="none" 
	d="
M186.619156,139.887100 
	C185.118118,136.829254 183.617081,133.771408 182.441193,130.317230 
	C191.065979,124.527908 199.365616,119.134888 207.665253,113.741859 
	C209.848068,114.898392 212.030869,116.054924 214.056976,117.549248 
	C206.416321,123.263626 198.851547,128.533295 191.502228,134.088058 
	C189.536499,135.573807 188.228897,137.930328 186.619156,139.887100 
z"/>
<path fill="#F78D37" opacity="1.000000" stroke="none" 
	d="
M242.106522,100.992256 
	C242.666290,90.621399 238.850922,82.236862 230.220718,75.995819 
	C235.336197,74.143997 236.482895,74.557228 241.514877,79.814026 
	C244.978195,77.325523 247.828537,78.973885 250.136581,81.642967 
	C252.511658,84.389595 254.502090,87.468857 256.393524,90.705338 
	C254.208237,91.367157 252.293869,91.747047 250.371521,92.080917 
	C246.419067,92.767326 242.964355,93.824440 243.862152,99.107147 
	C243.949493,99.621216 242.723099,100.358559 242.106522,100.992256 
z"/>
<path fill="#F4702C" opacity="1.000000" stroke="none" 
	d="
M189.046143,43.371143 
	C186.477402,46.400948 183.771469,49.132336 180.936920,52.224144 
	C177.570206,47.953712 174.332077,43.322868 171.307739,38.127548 
	C169.989471,32.896389 174.284241,31.780909 176.401306,29.222740 
	C177.656265,29.862469 178.764175,30.427242 179.872101,30.992012 
	C182.884384,35.018917 185.896667,39.045822 189.046143,43.371143 
z"/>
<path fill="#F2662D" opacity="1.000000" stroke="none" 
	d="
M179.804749,30.643169 
	C178.764175,30.427242 177.656265,29.862469 176.401306,29.222740 
	C174.284241,31.780909 169.989471,32.896389 171.278183,37.773376 
	C165.242950,26.484018 164.332413,15.008935 171.643921,2.182176 
	C172.212921,13.066892 175.043701,21.977926 179.804749,30.643169 
z"/>
<path fill="#F89A43" opacity="1.000000" stroke="none" 
	d="
M220.052032,120.896423 
	C220.954346,121.325310 221.856674,121.754189 222.891449,122.788849 
	C219.642929,126.450897 216.428162,129.719894 212.846085,132.518784 
	C205.575821,138.199448 198.106903,143.625854 190.719864,149.157059 
	C189.829391,147.333481 188.938904,145.509918 188.331802,143.193604 
	C199.094131,135.432709 209.573090,128.164566 220.052032,120.896423 
z"/>
<path fill="#F9A54D" opacity="1.000000" stroke="none" 
	d="
M190.810028,149.489868 
	C198.106903,143.625854 205.575821,138.199448 212.846085,132.518784 
	C216.428162,129.719894 219.642929,126.450897 223.087616,123.021851 
	C224.945114,123.614090 226.738861,124.579109 228.560730,126.064270 
	C222.341248,131.225586 216.033279,135.788193 209.863678,140.530823 
	C204.116959,144.948395 198.517487,149.557556 192.853210,154.082397 
	C192.202209,152.662491 191.551208,151.242584 190.810028,149.489868 
z"/>
<path fill="#F68C39" opacity="1.000000" stroke="none" 
	d="
M219.852722,120.643257 
	C209.573090,128.164566 199.094131,135.432709 188.310822,142.848877 
	C187.562744,142.146942 187.119034,141.297028 186.647232,140.167099 
	C188.228897,137.930328 189.536499,135.573807 191.502228,134.088058 
	C198.851547,128.533295 206.416321,123.263626 214.300049,117.804207 
	C216.350998,118.610947 218.002213,119.500519 219.852722,120.643257 
z"/>
<path fill="#F15C26" opacity="1.000000" stroke="none" 
	d="
M232.859680,195.402954 
	C237.042374,192.251892 241.391174,189.316620 245.851181,186.561371 
	C247.010132,185.845398 248.516525,185.691833 249.863342,185.279968 
	C250.242188,186.620850 250.871246,187.946259 250.955292,189.305389 
	C251.270355,194.401443 251.407364,199.508514 251.955994,204.883972 
	C250.708115,204.969513 248.858826,205.239349 247.568146,204.514511 
	C242.637024,201.745209 237.885712,198.655746 232.859680,195.402954 
z"/>
<path fill="#F47533" opacity="1.000000" stroke="none" 
	d="
M167.776794,63.520546 
	C160.419235,54.702763 157.295792,40.043358 160.565384,28.493689 
	C163.035782,39.227562 167.072296,48.722130 174.337708,56.735039 
	C172.011673,59.188412 169.894226,61.354477 167.776794,63.520546 
z"/>
<path fill="#F4722C" opacity="1.000000" stroke="none" 
	d="
M207.447449,113.459091 
	C199.365616,119.134888 191.065979,124.527908 182.415741,129.958252 
	C181.023819,127.920158 179.982513,125.844734 179.209579,123.382065 
	C186.308899,118.356903 193.139832,113.718987 199.970779,109.081085 
	C202.390396,110.446167 204.810028,111.811241 207.447449,113.459091 
z"/>
<path fill="#FAAD5B" opacity="1.000000" stroke="none" 
	d="
M285.896729,87.859535 
	C290.291382,83.499832 294.507965,78.936813 299.155762,74.866150 
	C301.481598,72.829124 304.594147,71.690414 307.841125,70.449142 
	C307.900513,74.024200 307.469635,77.295532 307.038757,80.566872 
	C301.616760,84.127731 296.194733,87.688591 290.433533,91.093468 
	C288.695160,89.911499 287.295959,88.885513 285.896729,87.859535 
z"/>
<path fill="#F2622D" opacity="1.000000" stroke="none" 
	d="
M323.108398,28.001822 
	C326.375702,20.107487 329.864288,12.261416 328.507751,3.362366 
	C335.071381,5.866041 336.886414,19.687826 331.943237,33.485611 
	C329.653351,30.240017 327.286438,27.762182 323.108398,28.001822 
z"/>
<path fill="#F58452" opacity="1.000000" stroke="none" 
	d="
M240.070465,127.702293 
	C243.437912,124.049133 246.892593,120.512756 250.607300,117.274658 
	C253.182571,115.029800 256.116028,113.195854 259.076843,110.850349 
	C260.572693,113.081718 261.881134,115.641060 262.883301,118.582794 
	C257.359650,123.379875 252.142242,127.794563 246.924835,132.209244 
	C244.706100,130.788284 242.487381,129.367325 240.070465,127.702293 
z"/>
<path fill="#FAAE55" opacity="1.000000" stroke="none" 
	d="
M192.924774,154.360214 
	C198.517487,149.557556 204.116959,144.948395 209.863678,140.530823 
	C216.033279,135.788193 222.341248,131.225586 228.779495,126.316864 
	C230.302139,126.807251 231.634094,127.565186 233.218811,128.576523 
	C223.052933,136.290070 212.660690,143.787567 202.195862,151.182327 
	C199.783676,152.886856 197.122742,154.239365 194.253342,155.893478 
	C193.619049,155.568069 193.307693,155.103043 192.924774,154.360214 
z"/>
<path fill="#171670" opacity="1.000000" stroke="none" 
	d="
M423.025391,233.211945 
	C424.279022,233.950531 425.789001,234.682571 425.798920,235.434479 
	C425.949554,246.828186 425.903564,258.224518 425.903564,269.828491 
	C424.195007,269.828491 422.921295,269.828491 421.605652,269.828491 
	C421.453217,269.616302 421.096771,269.351501 421.095459,269.084930 
	C421.040924,258.149994 420.975830,247.214539 421.061401,236.280334 
	C421.069397,235.254532 422.053284,234.236343 423.025391,233.211945 
z"/>
<path fill="#F6936E" opacity="1.000000" stroke="none" 
	d="
M272.662018,125.804062 
	C272.403076,127.583099 272.312012,129.979233 271.067596,131.182922 
	C264.775635,137.268829 258.183685,143.044601 251.346436,148.563263 
	C250.977127,147.129745 250.958282,146.062073 250.939453,144.994415 
	C250.958359,143.018250 250.977295,141.042068 251.005020,138.647766 
	C258.108551,134.110153 265.203278,129.990692 272.662018,125.804062 
z"/>
<path fill="#F6853C" opacity="1.000000" stroke="none" 
	d="
M242.047348,101.428360 
	C242.723099,100.358559 243.949493,99.621216 243.862152,99.107147 
	C242.964355,93.824440 246.419067,92.767326 250.371521,92.080917 
	C252.293869,91.747047 254.208237,91.367157 256.533356,91.011765 
	C258.248444,91.997269 259.556396,92.979118 261.673126,94.568092 
	C258.915710,94.903442 257.085846,95.125992 254.625381,95.425224 
	C255.182526,97.750450 255.696884,99.897072 256.300079,102.444717 
	C251.728622,104.564095 247.068344,106.282448 241.974670,107.997696 
	C241.690247,105.951210 241.839203,103.907837 242.047348,101.428360 
z"/>
<path fill="#F57F31" opacity="1.000000" stroke="none" 
	d="
M167.886322,63.818214 
	C169.894226,61.354477 172.011673,59.188412 174.487793,57.027374 
	C178.434555,59.819866 182.022659,62.607334 185.675766,65.972931 
	C183.348846,68.769875 180.956940,70.988693 178.565033,73.207504 
	C175.041962,70.176971 171.518890,67.146431 167.886322,63.818214 
z"/>
<path fill="#F9A542" opacity="1.000000" stroke="none" 
	d="
M217.034714,80.455658 
	C218.743149,79.079475 220.535675,78.044022 222.694504,76.997513 
	C228.798859,89.229454 226.968979,101.453568 223.011215,113.737320 
	C223.746216,102.228333 223.908218,90.893829 217.034714,80.455658 
z"/>
<path fill="#F89A43" opacity="1.000000" stroke="none" 
	d="
M311.027069,61.015762 
	C305.962555,63.988533 300.898010,66.961304 295.170593,69.852364 
	C291.449493,68.431625 288.391327,67.092583 285.333160,65.753548 
	C288.155090,63.158142 290.977051,60.562733 294.521057,58.037762 
	C300.157532,58.742947 305.071930,59.377701 310.100311,60.233864 
	C310.434998,60.714951 310.705902,60.901779 311.027069,61.015762 
z"/>
<path fill="#F36729" opacity="1.000000" stroke="none" 
	d="
M199.758911,108.845459 
	C193.139832,113.718987 186.308899,118.356903 179.101212,123.046989 
	C178.177139,121.943886 177.629837,120.788597 177.069214,119.303040 
	C182.256744,113.536125 187.513229,108.184738 195.821136,106.947578 
	C197.301361,107.491768 198.424210,108.050804 199.758911,108.845459 
z"/>
<path fill="#F68934" opacity="1.000000" stroke="none" 
	d="
M169.016251,74.963318 
	C173.955734,77.734932 178.895203,80.506546 183.807495,83.708969 
	C182.821625,86.256683 181.862961,88.373589 180.904297,90.490494 
	C175.380600,87.493263 169.856888,84.496033 164.176651,80.837242 
	C165.685501,78.438225 167.350876,76.700768 169.016251,74.963318 
z"/>
<path fill="#F79338" opacity="1.000000" stroke="none" 
	d="
M199.626312,73.750061 
	C204.410248,77.521271 209.194199,81.292488 213.889374,85.690041 
	C212.459183,87.710464 211.117737,89.104553 209.776306,90.498642 
	C204.569885,87.239349 199.363480,83.980057 194.212463,80.279991 
	C196.054016,77.809502 197.840164,75.779778 199.626312,73.750061 
z"/>
<path fill="#F68934" opacity="1.000000" stroke="none" 
	d="
M199.372604,73.469666 
	C197.840164,75.779778 196.054016,77.809502 193.956116,80.034790 
	C188.766525,78.076225 183.888687,75.922081 178.787933,73.487724 
	C180.956940,70.988693 183.348846,68.769875 185.884949,66.246155 
	C190.392380,68.357262 194.755630,70.773262 199.372604,73.469666 
z"/>
<path fill="#F57F31" opacity="1.000000" stroke="none" 
	d="
M313.875427,66.750229 
	C316.912262,64.527573 319.949066,62.304905 323.675201,60.031586 
	C327.009033,61.366379 329.653534,62.751831 332.298065,64.137283 
	C328.129700,67.827652 323.961334,71.518036 319.420105,74.920990 
	C317.323303,72.005791 315.599365,69.378014 313.875427,66.750229 
z"/>
<path fill="#F4722C" opacity="1.000000" stroke="none" 
	d="
M327.230682,43.639397 
	C324.805573,46.956001 322.380463,50.272610 319.564148,53.358166 
	C316.444519,50.416309 313.716095,47.705509 310.987610,44.994705 
	C313.037262,42.409199 315.086914,39.823700 317.799774,37.097458 
	C321.385559,39.184280 324.308105,41.411842 327.230682,43.639397 
z"/>
<path fill="#F57B33" opacity="1.000000" stroke="none" 
	d="
M168.849701,74.669319 
	C167.350876,76.700768 165.685501,78.438225 164.025452,80.534737 
	C156.224228,73.775902 154.382690,64.031975 151.840454,53.256012 
	C157.945877,60.911690 163.314514,67.643509 168.849701,74.669319 
z"/>
<path fill="#F79338" opacity="1.000000" stroke="none" 
	d="
M181.210815,90.667465 
	C181.862961,88.373589 182.821625,86.256683 184.117950,83.937897 
	C190.757675,86.526825 197.059753,89.317635 203.198517,92.471519 
	C201.625473,93.925682 200.215744,95.016785 198.806000,96.107880 
	C193.043121,94.353394 187.280228,92.598915 181.210815,90.667465 
z"/>
<path fill="#F78F35" opacity="1.000000" stroke="none" 
	d="
M226.995270,167.968460 
	C225.315216,169.857208 223.838120,171.992264 221.910461,173.580490 
	C218.496368,176.393402 214.808441,178.873947 211.084900,181.808044 
	C208.056427,179.674988 205.178162,177.227432 202.273376,174.445190 
	C206.272919,173.203018 210.298981,172.295547 215.051224,171.211655 
	C219.516678,170.012955 223.255981,168.990707 226.995270,167.968460 
z"/>
<path fill="#F47530" opacity="1.000000" stroke="none" 
	d="
M332.633667,64.100632 
	C329.653534,62.751831 327.009033,61.366379 323.983337,59.924118 
	C326.837585,55.961990 330.072937,52.056664 333.741760,48.272064 
	C336.094757,49.255764 338.014313,50.118736 339.933838,50.981705 
	C337.612305,55.342461 335.290771,59.703217 332.633667,64.100632 
z"/>
<path fill="#F5885F" opacity="1.000000" stroke="none" 
	d="
M247.146820,132.499023 
	C252.142242,127.794563 257.359650,123.379875 262.974121,118.939476 
	C264.512390,120.504326 265.653595,122.094894 267.005310,123.978882 
	C262.222473,127.159508 257.812500,130.409927 253.064987,133.054321 
	C251.653473,133.840530 249.293945,132.924728 247.146820,132.499023 
z"/>
<path fill="#F78D37" opacity="1.000000" stroke="none" 
	d="
M334.226227,83.649429 
	C329.404877,86.053619 324.583527,88.457802 319.377747,90.503990 
	C317.999359,88.107765 317.005371,86.069542 316.011383,84.031319 
	C320.020050,82.038879 324.028748,80.046448 328.701172,78.108322 
	C330.985321,79.991570 332.605774,81.820503 334.226227,83.649429 
z"/>
<path fill="#F36729" opacity="1.000000" stroke="none" 
	d="
M327.515503,43.408878 
	C324.308105,41.411842 321.385559,39.184280 318.074402,36.924843 
	C319.345978,34.104801 321.006195,31.316639 322.887390,28.265148 
	C327.286438,27.762182 329.653351,30.240017 331.717834,33.777462 
	C330.586823,37.052719 329.193604,40.115536 327.515503,43.408878 
z"/>
<path fill="#F9A347" opacity="1.000000" stroke="none" 
	d="
M285.073547,65.916351 
	C288.391327,67.092583 291.449493,68.431625 294.833527,69.930229 
	C291.990936,72.989212 288.822510,75.888618 285.162964,78.674103 
	C282.518372,78.034294 280.364899,77.508415 278.211426,76.982529 
	C280.412231,73.348068 282.613068,69.713615 285.073547,65.916351 
z"/>
<path fill="#FBC174" opacity="1.000000" stroke="none" 
	d="
M302.046570,96.493965 
	C297.242523,101.317108 292.438507,106.140259 288.390198,110.204697 
	C287.887726,101.368233 292.566315,94.110916 303.590576,89.334282 
	C303.316986,91.956482 302.681793,94.225227 302.046570,96.493965 
z"/>
<path fill="#F57F31" opacity="1.000000" stroke="none" 
	d="
M334.543152,83.473755 
	C332.605774,81.820503 330.985321,79.991570 329.033081,78.016823 
	C331.632294,75.032936 334.563263,72.194862 338.148926,69.182808 
	C340.539215,69.673897 342.274811,70.338974 344.010437,71.004044 
	C340.960297,75.102051 337.910187,79.200073 334.543152,83.473755 
z"/>
<path fill="#F89C3C" opacity="1.000000" stroke="none" 
	d="
M302.412018,96.357071 
	C302.681793,94.225227 303.316986,91.956482 303.944824,89.296326 
	C307.712036,87.288651 311.486633,85.672371 315.636292,84.043701 
	C317.005371,86.069542 317.999359,88.107765 319.001190,90.499756 
	C313.598511,92.642395 308.187988,94.431274 302.412018,96.357071 
z"/>
<path fill="#F57F31" opacity="1.000000" stroke="none" 
	d="
M310.678040,45.131962 
	C313.716095,47.705509 316.444519,50.416309 319.257202,53.544743 
	C316.780151,56.237370 314.218933,58.512363 311.342377,60.901558 
	C310.705902,60.901779 310.434998,60.714951 310.106567,59.776512 
	C309.705353,55.435780 311.812988,50.340057 304.931763,50.611637 
	C306.743988,48.830830 308.556244,47.050022 310.678040,45.131962 
z"/>
<path fill="#F78D37" opacity="1.000000" stroke="none" 
	d="
M313.546478,66.849319 
	C315.599365,69.378014 317.323303,72.005791 319.078125,75.030777 
	C315.343140,77.074310 311.577209,78.720634 307.425049,80.466919 
	C307.469635,77.295532 307.900513,74.024200 308.192871,70.427940 
	C309.775421,69.051476 311.496490,67.999939 313.546478,66.849319 
z"/>
<path fill="#F68C39" opacity="1.000000" stroke="none" 
	d="
M304.651062,50.698593 
	C311.812988,50.340057 309.705353,55.435780 309.992615,59.555099 
	C305.071930,59.377701 300.157532,58.742947 294.836304,57.960014 
	C297.743134,55.469742 301.056763,53.127647 304.651062,50.698593 
z"/>
<path fill="#F9A542" opacity="1.000000" stroke="none" 
	d="
M209.906158,90.794296 
	C211.117737,89.104553 212.459183,87.710464 213.993286,86.007683 
	C219.491913,92.557495 219.315704,100.418976 218.845444,107.818977 
	C215.995743,102.407433 213.015869,96.748703 209.906158,90.794296 
z"/>
<path fill="#F2662D" opacity="1.000000" stroke="none" 
	d="
M340.090027,50.718491 
	C338.014313,50.118736 336.094757,49.255764 334.011597,48.064064 
	C336.037201,42.433243 338.226440,37.131149 340.669678,31.213949 
	C342.856750,36.467808 342.067657,41.399918 341.079193,46.343327 
	C340.804962,47.714664 340.524017,49.084660 340.090027,50.718491 
z"/>
<path fill="#FAAE55" opacity="1.000000" stroke="none" 
	d="
M278.003479,77.301331 
	C280.364899,77.508415 282.518372,78.034294 284.881012,78.871017 
	C283.178986,83.304680 281.267822,87.427498 278.911133,91.591743 
	C277.351776,91.079979 276.237854,90.526779 275.123962,89.973579 
	C276.014496,85.855759 276.904999,81.737946 278.003479,77.301331 
z"/>
<path fill="#F89C3C" opacity="1.000000" stroke="none" 
	d="
M199.015152,96.374634 
	C200.215744,95.016785 201.625473,93.925682 203.443909,92.740311 
	C209.472168,96.352539 212.469498,101.359756 212.010681,107.629608 
	C207.795685,104.007370 203.509995,100.324371 199.015152,96.374634 
z"/>
<path fill="#FCBF68" opacity="1.000000" stroke="none" 
	d="
M285.626587,88.102631 
	C287.295959,88.885513 288.695160,89.911499 290.183319,91.357094 
	C287.768402,96.985420 285.264587,102.194130 282.559143,107.822227 
	C280.918060,100.756851 282.628418,94.487015 285.626587,88.102631 
z"/>
<path fill="#F47533" opacity="1.000000" stroke="none" 
	d="
M344.255310,70.750443 
	C342.274811,70.338974 340.539215,69.673897 338.436523,69.015091 
	C341.132233,64.431419 344.194977,59.841473 347.257721,55.251526 
	C347.794403,55.444874 348.331055,55.638222 348.867737,55.831573 
	C347.411896,60.719994 345.956055,65.608414 344.255310,70.750443 
z"/>
<path fill="#FCBF68" opacity="1.000000" stroke="none" 
	d="
M275.029114,90.434509 
	C276.237854,90.526779 277.351776,91.079979 278.740112,91.819565 
	C278.597015,98.702904 278.179504,105.399864 277.761993,112.096817 
	C277.292511,112.132095 276.823059,112.167366 276.353577,112.202644 
	C275.880493,105.100243 275.407410,97.997849 275.029114,90.434509 
z"/>
<path fill="#F68934" opacity="1.000000" stroke="none" 
	d="
M337.997986,87.997604 
	C338.128326,87.803642 338.261505,87.613022 338.394684,87.422409 
	C338.394501,87.629562 338.394318,87.836716 338.202545,88.027435 
	C338.010925,88.010994 338.000854,88.000946 337.997986,87.997604 
z"/>
<path fill="#F8F8FB" opacity="1.000000" stroke="none" 
	d="
M86.191513,239.186859 
	C91.803810,239.609268 94.159012,243.107513 94.881950,247.705795 
	C95.752556,253.243362 95.992043,259.209534 90.679466,262.620911 
	C88.650017,263.924072 84.195526,263.665009 82.130714,262.247162 
	C77.547989,259.100342 77.506264,253.667450 78.210083,248.594116 
	C78.837051,244.074783 80.716347,240.263138 86.191513,239.186859 
z"/>
<path fill="#F9F9FB" opacity="1.000000" stroke="none" 
	d="
M279.838623,265.178650 
	C275.643097,266.016266 271.803375,266.688507 267.457092,267.449432 
	C267.457092,256.973328 267.457092,247.455261 267.457092,237.956863 
	C275.912598,235.727570 283.215698,238.272781 286.006683,244.365952 
	C289.326263,251.613098 286.864777,260.357147 279.838623,265.178650 
z"/>
<path fill="#FAFAFC" opacity="1.000000" stroke="none" 
	d="
M459.550354,247.773041 
	C458.938782,252.508072 459.153168,257.285583 457.325409,261.079254 
	C453.523956,268.969452 443.330383,268.797363 438.950745,261.159241 
	C435.869690,255.785797 435.880554,250.068726 437.922150,244.363693 
	C439.642120,239.557480 442.991119,236.588654 448.303101,236.612061 
	C453.390015,236.634491 456.553009,239.566620 458.442688,244.052231 
	C458.889038,245.111771 459.120911,246.261642 459.550354,247.773041 
z"/>
<path fill="#FAB779" opacity="1.000000" stroke="none" 
	d="
M227.307251,167.813309 
	C223.255981,168.990707 219.516678,170.012955 215.384476,171.047546 
	C216.944809,168.951172 218.640289,166.501724 220.897217,164.794525 
	C229.325378,158.419235 237.912918,152.252747 246.514420,146.111206 
	C247.499771,145.407639 248.949020,145.353760 250.561310,144.996536 
	C250.958282,146.062073 250.977127,147.129745 250.999298,148.597656 
	C250.998535,150.708054 250.994476,152.418228 250.988525,154.555237 
	C250.683075,155.464966 250.379532,155.947876 249.927185,156.676498 
	C242.391998,160.500870 235.005600,164.079514 227.307251,167.813309 
z"/>
<path fill="#FEFEFE" opacity="1.000000" stroke="none" 
	d="
M146.400482,245.690109 
	C146.418381,245.427170 146.602829,245.373672 146.787262,245.320175 
	C146.713837,245.513290 146.640427,245.706421 146.400482,245.690109 
z"/>
<path fill="#F1F1F7" opacity="1.000000" stroke="none" 
	d="
M11.566305,240.096191 
	C14.562745,240.611938 17.572695,240.859741 19.713104,242.353516 
	C20.652670,243.009247 20.647921,247.088196 19.613756,248.058228 
	C17.640255,249.909409 14.621011,250.645721 11.226483,252.220261 
	C11.226483,247.166946 11.226483,243.750732 11.566305,240.096191 
z"/>
<path fill="#F1F1F7" opacity="1.000000" stroke="none" 
	d="
M380.549561,254.894302 
	C377.781525,254.892288 375.453766,254.895447 373.126495,254.864456 
	C372.815643,254.860336 372.507141,254.683502 371.837646,254.474045 
	C373.453369,249.372894 375.067352,244.277130 377.002625,238.167114 
	C378.816803,243.652420 380.348572,248.102402 381.708893,252.604202 
	C381.899689,253.235672 381.250427,254.120972 380.549561,254.894302 
z"/>
</svg>